<?xml version="1.0" encoding="UTF-8" standalone="no"?>
<!-- Created with Inkscape (http://www.inkscape.org/) -->

<svg
   xmlns:dc="http://purl.org/dc/elements/1.1/"
   xmlns:cc="http://creativecommons.org/ns#"
   xmlns:rdf="http://www.w3.org/1999/02/22-rdf-syntax-ns#"
   xmlns:svg="http://www.w3.org/2000/svg"
   xmlns="http://www.w3.org/2000/svg"
   xmlns:sodipodi="http://sodipodi.sourceforge.net/DTD/sodipodi-0.dtd"
   xmlns:inkscape="http://www.inkscape.org/namespaces/inkscape"
   id="svg2"
   version="1.1"
   inkscape:version="0.48.0 r9654"
   width="1024"
   height="680"
   sodipodi:docname="cow-silhouette.svg">
  <metadata
     id="metadata8">
    <rdf:RDF>
      <cc:Work
         rdf:about="">
        <dc:format>image/svg+xml</dc:format>
        <dc:type
           rdf:resource="http://purl.org/dc/dcmitype/StillImage" />
        <dc:title />
      </cc:Work>
    </rdf:RDF>
  </metadata>
  <defs
     id="defs6" />
  <sodipodi:namedview
     pagecolor="#ffffff"
     bordercolor="#666666"
     borderopacity="1"
     objecttolerance="10"
     gridtolerance="10"
     guidetolerance="10"
     inkscape:pageopacity="0"
     inkscape:pageshadow="2"
     inkscape:window-width="1280"
     inkscape:window-height="975"
     id="namedview4"
     showgrid="false"
     inkscape:zoom="0.75882353"
     inkscape:cx="514.77527"
     inkscape:cy="471.33851"
     inkscape:window-x="-4"
     inkscape:window-y="-4"
     inkscape:window-maximized="1"
     inkscape:current-layer="svg2" />
  <path
     style="fill:#000000;stroke:#000000;stroke-width:1.25195634px;stroke-linecap:round;stroke-linejoin:round;stroke-opacity:1"
     d="m 792.66876,138.50333 c -9.84759,5.57488 -9.81905,11.21223 -11.24329,16.84036 -6.23188,6.83044 -14.90764,6.17176 -24.35588,3.1458 -13.67511,-11.12169 -22.02234,-7.75777 -29.2767,-1.42252 -19.492,-5.02789 -39.00391,-6.90553 -58.46472,-16.86863 L 651.20611,135.959 c -42.86707,-27.41648 -59.20018,-26.79259 -77.77723,-28.54002 -28.28833,-4.28885 -67.93089,-5.10815 -113.81753,-4.01944 -79.579,0.92068 -141.1759,-2.87826 -192.15327,-9.46441 -44.551,-4.592568 -47.82657,2.890621 -55.32935,9.13708 -67.75556,8.3161 -67.41108,15.80176 -78.51826,23.42706 -12.76377,15.01883 -19.82672,32.21669 -23.83088,50.58369 -7.62553,24.93793 -12.967181,33.5961 -4.39017,107.2156 l 1.96059,16.09891 2.11184,-7.82367 -0.0834,13.19867 3.31269,-2.04144 -1.27648,6.17904 3.30749,-1.2165 0.72582,15.67862 2.47735,-0.39681 -2.97326,13.59285 -2.55561,12.77055 -3.41961,18.95221 c -3.3952,10.72358 -4.49685,19.74953 -3.47178,27.20137 6.12416,7.11644 10.94541,8.87753 12.79661,-1.56899 2.49737,17.21233 6.14636,10.43349 9.88857,1.71242 7.44342,6.83896 8.04459,-13.24654 9.26966,-30.87699 0.89887,-5.85106 -0.26395,-14.83743 -1.49857,-23.933 -1.74476,-13.65892 -1.8795,-27.39826 -2.62381,-41.6765 -0.79212,-7.81555 -0.94176,-14.87187 -8.05878,-30.16158 -3.5801,-3.51453 -6.49502,-12.09038 -8.92023,-24.3924 0.11689,-18.32886 1.06176,-34.69206 4.41146,-45.3443 17.88891,39.5558 32.66767,80.2853 36.33103,125.20947 l 2.33131,22.70085 c -1.59568,17.45023 -5.67161,28.58431 -9.33225,40.77597 -8.67634,12.27448 -15.24109,6.72061 -1.51902,44.53762 7.08188,32.21779 5.92157,64.38346 5.57663,96.5543 l -4.54485,1.20868 3.70951,0.43593 -7.84974,2.01274 7.41642,1.28431 -1.25563,2.8794 -4.95992,1.61853 6.17643,1.68893 4.524,2.09099 -1.26606,4.52922 -4.15327,4.51095 4.53964,-0.38376 0.39943,2.06489 -3.31793,2.86634 4.12458,0.0261 2.4565,2.90286 -0.013,2.06228 -0.84056,2.46954 5.35412,1.27128 c -6.82901,4.7271 -4.03309,12.14468 1.10959,20.21826 14.31415,1.28166 27.89027,4.01632 45.3782,-0.95051 2.82203,-0.60263 6.03467,0.8141 7.86799,-4.89995 -7.09402,-8.35907 -8.90946,-8.69074 -11.89346,-10.79953 4.33855,-5.13529 -4.5492,-13.96776 -11.82046,-22.34836 -16.03096,-48.43557 -12.12845,-91.81236 -0.87529,-122.51046 5.84105,-14.12891 47.68781,-76.10092 45.40646,-70.6585 l 4.93385,2.50603 c 1.82673,12.26188 3.88125,21.59551 6.89443,18.60495 3.7681,2.25144 3.49826,-10.68048 4.24976,-19.77191 l 2.88721,0.0183 c 2.1896,8.41801 3.05475,24.48421 7.29124,21.08229 5.15912,2.56837 4.24045,-8.77462 5.45844,-15.22704 l 3.3101,-1.62897 4.5579,-3.27098 3.32574,-4.10371 17.35975,-5.66488 9.48131,0.88489 c 17.23524,8.56437 33.61351,15.38737 49.77181,21.76336 l 13.15171,7.50771 7.39295,4.99642 6.18947,-0.37333 5.36979,-1.20346 8.25177,-0.36031 3.31009,-1.62897 3.72777,-2.45128 9.91203,-1.99969 23.52836,-2.73857 18.57625,-2.35739 15.2792,-2.79071 24.34285,-1.08352 12.37113,0.4907 12.75491,5.03033 -0.0339,5.36196 1.54551,16.50874 c 0.83576,16.58074 1.27562,34.51468 4.26061,43.74923 -2.25676,13.72209 2.2647,24.5898 7.61503,35.10849 3.5752,29.26676 1.69116,49.97622 1.2011,70.98231 l 0.36551,7.42686 3.28923,1.6707 0.41507,-0.40985 2.04664,2.48778 2.8846,0.43072 -0.82231,-0.41768 2.05968,0.4255 -4.58136,6.98309 1.61331,5.78485 2.43823,5.79006 10.70046,3.77993 4.12457,0.0261 1.62115,4.54746 7.41902,0.87186 c 2.72859,2.19852 8.92127,3.9245 19.35423,5.07207 11.12953,2.4157 18.3747,0.89763 26.39731,0.1669 l 1.25824,-3.29184 0.84579,-3.29445 -13.94014,-13.28732 c -0.74503,-5.64186 -6.53408,-11.31562 -12.67926,-16.99162 -1.31666,-30.9599 -2.86312,-25.57318 -4.30997,-35.94165 l -1.85627,-32.59722 8.82068,-25.10517 c 3.47891,-28.32814 6.87696,-43.866 10.23803,-53.55695 37.77447,-7.72661 35.2278,-17.62885 52.13921,-26.48118 48.75909,-24.90548 43.79388,-35.40152 51.04527,-49.17419 35.93829,-31.99974 45.51394,-31.46997 60.4588,-37.56539 23.13962,0.42926 30.07205,-2.19424 42.09679,-3.85857 -2.67854,2.64488 31.31747,7.74398 53.97723,9.00324 2.50954,8.09001 19.46757,9.31352 28.03149,2.6521 l 0.0209,-3.29968 4.54486,-1.20868 3.72777,-2.45129 2.09097,-4.52399 0.42029,-1.23476 c 5.53483,-4.11338 5.71018,-6.44466 6.6567,-9.03235 l -0.78841,-5.77964 1.27649,-6.17904 c -0.12849,-1.85833 -3.64502,-5.43753 -5.72225,-8.28568 -5.31768,-5.02022 -10.59367,-9.93421 -18.02036,-20.32518 l -7.77151,-10.36099 c -2.23682,-2.12693 -4.81093,-4.59543 -6.5602,-6.2286 -0.5196,-2.11828 -0.61285,-2.0324 -1.60811,-6.60976 l -1.59246,-9.0845 -0.36291,-7.83931 -2.03361,-4.55008 -3.68864,-3.7356 -5.7353,-6.22337 -4.10633,-2.91329 -5.73007,-7.04829 -2.44347,-4.96514 -4.07501,-7.86279 -1.62376,-4.13501 c 12.12296,-10.87438 18.77285,-22.07154 10.11544,-34.17143 -2.89407,8.36869 -3.40563,16.75242 -14.59511,25.06867 -7.47631,-5.10387 -16.2299,-7.69305 -25.93268,-8.41347 4.4859,-10.19907 0.95934,-17.78348 -4.38057,-24.77616 -0.0873,18.6499 -6.52256,23.31447 -12.96354,27.9663 z"
     id="path2987"
     inkscape:connector-curvature="0"
     sodipodi:nodetypes="cccccccccccccccccccccccccccccccccccccccccccccccccccccccccccccccccccccccccccccccccccccccccccccccccccccccccccccccccccccccccccccccccccccccccccccccccccccccc" />
</svg>
